<svg xmlns="http://www.w3.org/2000/svg" viewBox="738.1 738.1 2066.8 2066.8" fill="#d6787b" fill-rule="nonzero">
    <g transform="matrix(0.959032,0,0,0.959032,1544.921856,515.118171)">
        <path d="M-60.612,1582.452C-65.412,1580.052 -69.012,1578.852 -73.812,1578.852C-79.812,1578.852 -85.812,1580.052 -90.612,1583.652C-94.212,1586.052 -101.412,1588.452 -111.012,1588.452C-204.612,1588.452 -222.612,1446.852 -298.212,1380.852C-301.812,1377.252 -304.212,1374.852 -304.212,1372.452C-304.212,1368.852 -299.412,1366.452 -292.212,1365.252C-144.612,1347.252 -93.012,1244.052 -93.012,1136.052C-93.012,1071.252 -109.812,1012.452 -150.612,969.252C-190.212,927.252 -255.012,900.852 -352.212,900.852L-666.612,900.852C-689.412,900.852 -705.012,920.052 -705.012,940.452C-705.012,947.652 -702.612,956.052 -697.812,963.252L-694.212,966.852C-685.812,978.852 -681.012,993.252 -681.012,1007.652L-681.012,1602.852C-681.012,1617.252 -685.812,1631.652 -694.212,1643.652L-697.812,1648.452C-702.612,1655.652 -705.012,1662.852 -705.012,1671.252C-705.012,1691.652 -689.412,1710.852 -666.612,1710.852L-513.012,1710.852C-490.212,1710.852 -474.612,1691.652 -474.612,1671.252C-474.612,1662.852 -477.012,1655.652 -481.812,1648.452L-485.412,1643.652C-493.812,1631.652 -498.612,1617.252 -498.612,1602.852L-498.612,1407.252C-498.612,1388.052 -484.212,1372.452 -465.012,1371.252L-462.612,1371.252C-342.612,1371.252 -439.812,1719.252 -181.812,1719.252C-93.012,1719.252 -57.012,1655.652 -42.612,1619.652C-41.412,1616.052 -41.412,1612.452 -41.412,1610.052C-41.412,1599.252 -47.412,1589.652 -57.012,1583.652L-60.612,1582.452ZM-498.612,1022.052C-498.612,1001.652 -483.012,984.852 -462.612,984.852L-449.412,984.852C-334.212,984.852 -286.212,1053.252 -286.212,1136.052C-286.212,1218.852 -334.212,1287.252 -449.412,1287.252L-462.612,1287.252C-483.012,1287.252 -498.612,1270.452 -498.612,1250.052L-498.612,1022.052Z"/>
        <g transform="matrix(1,0,0,1,-19.811639,0)">
            <path d="M268.27,1332.649C280.001,1328.739 291.08,1324.177 301.507,1318.964C313.238,1313.75 323.013,1307.233 330.182,1299.413C337.35,1291.592 341.261,1281.817 341.261,1269.435L341.261,1267.479C341.261,1256.401 337.35,1246.625 330.182,1238.805C322.361,1231.636 312.586,1227.726 301.507,1227.726C290.428,1227.726 281.304,1231.636 273.484,1238.805C265.012,1246.625 261.102,1256.401 261.102,1267.479C261.102,1280.513 257.191,1290.941 249.371,1299.413C241.551,1307.885 231.775,1314.402 220.045,1320.267C207.662,1326.132 195.28,1330.694 181.594,1335.256C168.56,1339.818 156.178,1345.032 144.448,1350.245C132.717,1355.459 122.942,1361.976 115.773,1369.796C108.604,1377.617 104.694,1388.044 104.694,1400.426L104.694,1401.729C104.694,1412.808 108.604,1421.932 116.425,1429.752C124.245,1438.224 133.369,1442.135 144.448,1442.135C155.527,1442.135 165.302,1438.224 173.122,1429.752C180.943,1421.932 184.853,1412.808 184.853,1401.729C184.853,1389.999 188.111,1379.572 194.628,1371.751C199.19,1383.482 201.797,1399.123 203.752,1419.325C204.404,1423.887 204.404,1427.797 204.404,1431.708C204.404,1457.124 199.842,1479.282 190.718,1497.529C181.594,1515.777 168.56,1525.552 151.616,1527.507L149.01,1527.507C131.414,1527.507 117.076,1517.732 105.997,1498.832C94.919,1479.933 87.75,1455.82 85.795,1426.494C85.143,1421.932 85.143,1418.022 85.143,1414.112C85.143,1389.999 89.053,1368.493 97.525,1350.245C105.997,1331.998 117.076,1320.919 132.065,1316.357C136.627,1315.053 140.537,1311.795 142.493,1307.233L143.144,1305.278C143.796,1303.323 143.796,1302.019 143.796,1300.716C143.796,1297.458 143.144,1294.851 141.841,1292.244C139.886,1290.289 137.931,1288.334 134.672,1287.03C113.818,1277.255 102.087,1255.749 98.829,1221.861L98.829,1214.692C98.829,1197.096 102.739,1182.107 110.559,1169.073C118.38,1156.691 128.807,1150.174 142.493,1150.174C152.92,1150.174 162.695,1152.78 172.471,1158.646C181.594,1164.511 186.156,1172.331 186.156,1183.41C186.156,1195.141 190.067,1203.613 197.235,1208.827C204.404,1214.04 212.224,1216.647 220.696,1216.647C234.382,1216.647 244.158,1212.737 250.023,1205.568C255.236,1198.399 257.843,1191.231 257.843,1182.759C257.843,1165.163 248.068,1149.522 228.517,1137.14C208.966,1124.757 181.594,1118.892 147.054,1118.892C104.694,1118.892 70.806,1128.668 45.389,1148.219C19.973,1167.77 6.939,1191.231 6.939,1218.602C6.939,1250.535 23.232,1276.603 55.817,1296.806C57.772,1298.761 59.075,1300.064 59.075,1302.019C59.075,1303.975 57.772,1305.93 55.817,1307.885C33.659,1320.267 16.715,1335.908 4.984,1356.11C-6.746,1376.313 -12.612,1398.471 -12.612,1422.584C-12.612,1460.382 1.726,1492.315 29.749,1519.035C57.772,1545.755 95.57,1558.789 144.448,1558.789C193.325,1558.789 231.775,1545.755 259.798,1519.035C287.821,1492.315 302.159,1460.382 302.159,1422.584C302.159,1403.684 298.249,1386.089 291.08,1370.448C284.563,1356.11 276.742,1343.076 268.27,1332.649Z"/>
        </g>
        <path d="M1166.726,1643.652C1157.126,1631.652 1152.326,1617.252 1152.326,1602.852L1152.326,1008.852C1152.326,993.252 1157.126,978.852 1166.726,966.852L1169.126,963.252C1175.126,956.052 1177.526,947.652 1177.526,939.252C1177.526,918.852 1160.726,900.852 1137.926,900.852L1008.326,900.852C989.126,900.852 971.126,912.852 963.926,932.052L775.526,1391.652C773.126,1398.852 769.526,1402.452 765.926,1402.452C762.326,1402.452 758.726,1398.852 756.326,1391.652L570.326,929.652C563.126,912.852 545.126,900.852 525.926,900.852L398.726,900.852C381.926,900.852 369.926,911.652 365.126,924.852C361.526,930.852 359.126,938.052 359.126,945.252C359.126,953.652 361.526,962.052 367.526,969.252L369.926,972.852C377.126,983.652 380.726,995.652 380.726,1007.652L380.726,1610.052C380.726,1622.052 377.126,1634.052 369.926,1643.652L367.526,1647.252C361.526,1655.652 359.126,1664.052 359.126,1672.452C359.126,1694.052 375.926,1713.252 399.926,1713.252L494.726,1713.252C519.926,1713.252 536.726,1692.852 536.726,1672.452C536.726,1664.052 534.326,1654.452 528.326,1647.252L525.926,1643.652C518.726,1634.052 465.926,1623.252 465.926,1560.852L465.926,1241.652C465.926,1227.252 469.526,1221.252 474.326,1221.252C477.926,1221.252 483.926,1227.252 488.726,1236.852L654.326,1628.052C662.726,1652.052 686.726,1667.652 711.926,1667.652C726.326,1667.652 738.326,1664.052 749.126,1656.852C758.726,1648.452 767.126,1637.652 771.926,1625.652L948.326,1196.052C953.126,1184.052 957.926,1176.852 962.726,1176.852C967.526,1176.852 971.126,1184.052 971.126,1199.652L971.126,1602.852C971.126,1617.252 966.326,1631.652 957.926,1643.652L954.326,1648.452C949.526,1655.652 947.126,1662.852 947.126,1671.252C947.126,1691.652 962.726,1710.852 985.526,1710.852L1137.926,1710.852C1160.726,1710.852 1177.526,1691.652 1177.526,1671.252C1177.526,1664.052 1175.126,1655.652 1169.126,1648.452L1166.726,1643.652Z"/>
    </g>
</svg>
